<?xml version="1.0" encoding="UTF-8"?>
<svg id="Layer_1" data-name="Layer 1" xmlns="http://www.w3.org/2000/svg" viewBox="0 0 2000 2000">
  <defs>
    <style>
      .cls-1 {
        fill: #9e8151;
        stroke-width: 0px;
      }
    </style>
  </defs>
  <g>
    <g>
      <path class="cls-1" d="m945.04,1023.56c-9.29,4.85-18.45,7.94-29.62,7.94-26.93,0-45.24-20.06-45.24-47.13s18.45-47.13,45.78-47.13c11.18,0,19.52,2.02,27.06,6.46l.54,19.52h-8.21l-3.37-19.93,8.35,2.69v7.68c-7.27-6.73-14.68-9.69-23.29-9.69-18.85,0-32.72,14.68-32.72,40.4s12.66,40.26,33.66,40.26c7.67,0,13.33-1.75,21.01-5.52l-6.06,6.33v-7.81c0-10.23-.14-20.74-.4-30.97h12.93c-.27,10.1-.4,20.47-.4,30.97v5.92Zm-26.53-31.51v-5.39h35.01v5.39l-14.81,1.35h-2.69l-17.5-1.35Z"/>
      <path class="cls-1" d="m987.19,944.66v-5.39h37.7v5.39l-17.51,2.02h-2.69l-17.5-2.02Zm20.2,77.42l17.51,2.02v5.39h-37.7v-5.39l17.5-2.02h2.69Zm-7.41-41.07c0-13.87,0-27.87-.4-41.74h12.93c-.4,13.6-.4,27.6-.4,41.74v6.73c0,13.87,0,27.87.4,41.74h-12.93c.4-13.6.4-27.6.4-41.74v-6.73Z"/>
      <path class="cls-1" d="m1063.94,944.66v-5.39h18.85v7.41h-1.35l-17.51-2.02Zm20.2,77.42l17.5,2.02v5.39h-37.7v-5.39l17.51-2.02h2.69Zm-7.41-41.07c0-13.87,0-27.87-.4-41.74h12.93c-.4,14-.4,27.2-.4,43.09v4.04c0,15.22,0,29.22.4,43.09h-12.93c.4-13.6.4-27.6.4-41.74v-6.73Zm6.06.67h16.83c14.54,0,21.54-7.81,21.54-18.72s-6.06-17.51-20.06-17.51h-18.31v-6.19h18.45c20.6,0,32.72,8.75,32.72,23.7,0,11.44-9.02,21.81-26.66,23.29l.4-1.08c9.69.94,15.62,5.39,19.25,17.51l6.6,22.35-4.17-2.56,13.87,1.62v5.39c-2.42.81-5.66,1.35-9.69,1.35-8.35,0-11.98-2.15-13.6-8.35l-5.52-21.95c-2.69-10.91-7.67-12.79-18.85-12.79h-12.79v-6.06Z"/>
      <path class="cls-1" d="m1178.26,944.66v-5.39h37.7v5.39l-17.51,2.02h-2.69l-17.5-2.02Zm20.2,77.42l17.51,2.02v5.39h-37.7v-5.39l17.5-2.02h2.69Zm-7.41-41.07c0-13.87,0-27.87-.4-41.74h12.93c-.41,13.6-.41,27.6-.41,41.74v6.73c0,13.87,0,27.87.41,41.74h-12.93c.4-13.6.4-27.6.4-41.74v-6.73Z"/>
      <path class="cls-1" d="m1255.01,944.66v-5.39h18.85v7.41h-1.35l-17.5-2.02Zm20.2,77.42l17.51,2.02v5.39h-37.7v-5.39l17.5-2.02h2.69Zm-7.41-41.07c0-13.87,0-27.87-.4-41.74h12.93c-.41,14-.41,27.2-.41,43.09v4.04c0,15.22,0,29.22.41,43.09h-12.93c.4-13.6.4-27.6.4-41.74v-6.73Zm6.06.67h16.83c14.54,0,21.54-7.81,21.54-18.72s-6.06-17.51-20.06-17.51h-18.31v-6.19h18.45c20.6,0,32.72,8.75,32.72,23.7,0,11.44-9.02,21.81-26.66,23.29l.41-1.08c9.69.94,15.62,5.39,19.25,17.51l6.6,22.35-4.18-2.56,13.87,1.62v5.39c-2.42.81-5.66,1.35-9.69,1.35-8.35,0-11.98-2.15-13.6-8.35l-5.52-21.95c-2.69-10.91-7.68-12.79-18.85-12.79h-12.79v-6.06Z"/>
      <path class="cls-1" d="m1365.29,1024.1l13.47-2.02h2.69l14.81,2.02v5.39h-30.97v-5.39Zm40.13-85.5h8.08l30.97,90.89h-12.52l-27.07-80.66h3.1l-27.47,80.66h-6.33l31.24-90.89Zm-15.75,55.21h36.36l2.15,6.19h-40.67l2.15-6.19Zm26.53,30.3l16.97-2.02h2.69l16.7,2.02v5.39h-36.36v-5.39Z"/>
      <path class="cls-1" d="m1511.93,939.27c-.4,13.6-.4,27.6-.4,41.74v21.41c0,15.08-.27,21.95-1.62,28.82-2.56,13.47-13.87,20.06-25.04,20.06-4.98,0-10.23-1.35-11.45-6.46.81-4.85,3.91-6.46,8.08-6.46,3.37,0,6.19,1.08,9.96,3.9l4.44,3.37-1.08,1.48-1.08.14-.27-1.08c5.12-3.91,6.87-8.89,6.87-17.37s-.67-22.08-1.35-89.54h12.93Zm-26.66,0h39.05v5.39l-17.51,2.02h-2.69l-18.85-2.02v-5.39Z"/>
    </g>
    <g>
      <path class="cls-1" d="m1010.22,1103.41l3.82-.81c.4-.1.74-.31,1.01-.63.27-.32.41-.7.41-1.14v-33.46c0-.46-.14-.85-.41-1.17-.27-.32-.61-.53-1.01-.63l-3.82-.78v-1.41h30.21v9.72h-1.69l-2.14-6.41c-.1-.3-.24-.55-.42-.75-.18-.2-.45-.3-.81-.3h-14.5v16.46h9.51c.4,0,.69-.09.87-.27.18-.18.32-.41.42-.69l1.72-4.93h1.47v14.11h-1.47l-1.72-4.87c-.1-.32-.24-.58-.42-.77-.18-.19-.47-.29-.87-.29h-9.51v18.17h17.09c.36,0,.63-.1.81-.29s.32-.45.42-.77l2.02-7.25h1.68v10.59h-32.68v-1.41Z"/>
      <path class="cls-1" d="m1065.1,1103.41l2.23-.69c.46-.16.92-.45,1.37-.87.45-.42.82-.82,1.1-1.2l11.34-16.04-11.1-17.3c-.12-.18-.26-.37-.42-.56-.16-.19-.33-.37-.51-.54-.18-.17-.36-.32-.54-.45-.18-.13-.35-.22-.51-.26l-2.59-.72v-1.41h14.98v1.41l-5.18.99,7.52,11.89,2.11,3.46,10.02-15.22-4.9-1.11v-1.41h11.7v1.41l-2.23.66c-.44.14-.89.43-1.35.87-.46.44-.83.85-1.11,1.23l-10.77,15.47,11.4,17.87c.22.34.53.7.92,1.07.39.37.74.61,1.04.71l2.59.75v1.41h-14.98v-1.41l5.18-.99-7.82-12.4-2.08-3.49-10.53,15.77,4.84,1.11v1.41h-11.7v-1.41Z"/>
      <path class="cls-1" d="m1123.98,1103.41l3.82-.81c.4-.1.74-.31,1.01-.63.27-.32.41-.7.41-1.14v-33.46c0-.46-.14-.85-.41-1.17-.27-.32-.61-.53-1.01-.63l-3.82-.78v-1.41h15.22c2.05,0,3.98.21,5.79.62,1.82.41,3.4,1.06,4.77,1.94,1.36.88,2.44,2.02,3.23,3.4.79,1.38,1.19,3.05,1.19,4.99,0,2.07-.35,3.93-1.05,5.58-.7,1.65-1.67,3.06-2.89,4.21-1.22,1.15-2.67,2.04-4.33,2.66-1.67.62-3.47.93-5.42.93-.46,0-.94-.06-1.44-.17-.5-.11-1.01-.26-1.52-.45s-1.02-.41-1.52-.66-.96-.51-1.38-.77v15.16c0,.46.14.85.42,1.17s.62.52,1.02.6l4.3.81v1.41h-16.4v-1.41Zm10.65-18.75c.32.08.69.15,1.11.21.42.06.86.12,1.32.17.46.05.93.09,1.41.11s.94.03,1.38.03c1.2,0,2.25-.18,3.13-.53.88-.35,1.64-.81,2.27-1.37s1.14-1.19,1.53-1.88c.39-.69.7-1.39.93-2.09.23-.7.39-1.37.47-2,.08-.63.12-1.16.12-1.58,0-1.34-.16-2.63-.47-3.85s-.85-2.3-1.62-3.24c-.77-.93-1.81-1.68-3.11-2.24-1.3-.56-2.94-.84-4.9-.84h-3.58v19.11Z"/>
      <path class="cls-1" d="m1197.1,1105.75c-3.07,0-5.79-.54-8.15-1.61-2.37-1.07-4.36-2.57-5.99-4.48s-2.86-4.2-3.7-6.86c-.84-2.66-1.26-5.57-1.26-8.74s.44-5.83,1.31-8.45c.87-2.63,2.13-4.92,3.78-6.87,1.64-1.96,3.65-3.5,6.02-4.62,2.37-1.12,5.05-1.68,8.06-1.68,3.25,0,6.07.58,8.47,1.73,2.4,1.15,4.38,2.71,5.96,4.68,1.57,1.97,2.75,4.26,3.52,6.88.77,2.62,1.16,5.4,1.16,8.35,0,1.75-.16,3.49-.48,5.24-.32,1.74-.82,3.42-1.49,5.02s-1.52,3.1-2.56,4.5c-1.03,1.39-2.26,2.6-3.69,3.63-1.42,1.02-3.04,1.83-4.86,2.42-1.82.59-3.85.89-6.09.89Zm.57-2.17c2.11,0,3.95-.48,5.52-1.43,1.57-.95,2.89-2.26,3.94-3.93,1.05-1.66,1.85-3.63,2.38-5.88.53-2.26.8-4.69.8-7.3,0-3.01-.28-5.77-.83-8.27-.55-2.51-1.39-4.66-2.53-6.47-1.13-1.81-2.56-3.21-4.29-4.21-1.73-1-3.76-1.5-6.11-1.5-2.23,0-4.14.51-5.73,1.53-1.59,1.02-2.9,2.38-3.91,4.08-1.01,1.7-1.76,3.65-2.23,5.87-.47,2.22-.71,4.53-.71,6.94,0,2.95.27,5.68.81,8.18.54,2.51,1.37,4.68,2.5,6.51,1.12,1.84,2.54,3.28,4.26,4.32,1.71,1.04,3.76,1.56,6.12,1.56Z"/>
      <path class="cls-1" d="m1239.91,1103.41l3.82-.81c.4-.1.74-.31,1.01-.63s.41-.7.41-1.14v-33.46c0-.46-.14-.85-.41-1.17-.27-.32-.61-.53-1.01-.63l-3.82-.78v-1.41h15.23c2.05,0,3.84.14,5.39.42s2.87.67,3.99,1.16c1.11.49,2.04,1.06,2.77,1.71.73.65,1.31,1.36,1.75,2.12.43.76.73,1.56.9,2.39.17.83.26,1.66.26,2.48,0,1.71-.31,3.22-.92,4.54-.61,1.32-1.38,2.46-2.32,3.4-.93.94-1.95,1.71-3.05,2.3-1.1.59-2.14,1.01-3.1,1.25l11.4,15.04c.18.24.4.5.66.77.26.27.53.52.81.75.28.23.57.43.86.6.29.17.57.29.83.35l3.37.75v1.41h-6.35c-.9,0-1.65-.07-2.24-.21-.59-.14-1.11-.37-1.55-.68-.44-.31-.85-.7-1.22-1.17-.37-.47-.8-1.04-1.28-1.7l-10.65-14.71-4.87-.93v15.41c0,.46.12.84.35,1.14s.55.51.95.63l4.45.81v1.41h-16.4v-1.41Zm10.65-19.86c.22.06.53.11.93.15.4.04.83.08,1.29.11s.91.05,1.34.06c.43.01.79.02,1.07.02,1.56,0,2.92-.26,4.08-.77,1.15-.51,2.11-1.19,2.87-2.03.76-.84,1.33-1.82,1.71-2.92.38-1.1.57-2.26.57-3.46,0-1.6-.22-2.98-.66-4.14-.44-1.15-1.08-2.1-1.91-2.84-.83-.74-1.86-1.29-3.08-1.64-1.22-.35-2.62-.53-4.18-.53h-4.03v17.99Z"/>
      <path class="cls-1" d="m1305.86,1103.41l4.42-.81c.4-.08.74-.29,1.01-.62.27-.33.41-.72.41-1.16v-35.2h-9.6c-.4,0-.69.1-.87.3-.18.2-.32.45-.42.75l-2.17,6.65h-1.59v-9.96h34.81v9.96h-1.59l-2.17-6.65c-.1-.3-.24-.55-.41-.75-.17-.2-.45-.3-.83-.3h-9.75v35.2c0,.46.14.85.42,1.17s.62.52,1.02.6l4.42.81v1.41h-17.12v-1.41Z"/>
      <path class="cls-1" d="m1355.45,1092.42h1.59l2.38,5.99c.1.24.3.52.59.84.29.32.55.55.77.69.72.46,1.5.88,2.35,1.26.84.38,1.69.71,2.53.98.84.27,1.64.48,2.41.63.76.15,1.43.23,2.02.23,1.26,0,2.41-.18,3.45-.54s1.92-.89,2.65-1.58c.73-.69,1.29-1.54,1.68-2.56s.59-2.17.59-3.48c0-1.85-.5-3.36-1.5-4.53s-2.36-2.12-4.06-2.84c-.76-.32-1.51-.59-2.26-.8-.74-.21-1.49-.42-2.24-.62-.75-.2-1.5-.41-2.26-.62-.75-.21-1.5-.47-2.24-.77-2.25-.9-3.99-2.2-5.22-3.88-1.23-1.68-1.85-3.73-1.85-6.14,0-1.7.33-3.3.99-4.8.66-1.49,1.58-2.8,2.75-3.91,1.17-1.11,2.56-1.99,4.17-2.62s3.34-.95,5.21-.95c1.02,0,2.04.06,3.04.17,1,.11,1.99.26,2.95.44.96.18,1.9.4,2.8.65.9.25,1.77.52,2.62.8v9.78h-1.59l-2.08-5.57c-.1-.3-.29-.57-.56-.81s-.52-.44-.74-.6c-.48-.36-1.04-.67-1.68-.93s-1.3-.48-1.97-.66c-.67-.18-1.33-.32-1.97-.41-.64-.09-1.19-.14-1.66-.14-1.18,0-2.24.17-3.17.5s-1.72.79-2.36,1.37c-.64.58-1.14,1.28-1.49,2.11s-.53,1.71-.53,2.68c0,.84.08,1.67.24,2.47.16.8.45,1.55.87,2.26.42.7,1,1.35,1.73,1.94.73.59,1.66,1.09,2.78,1.49.72.26,1.44.49,2.15.69.71.2,1.43.4,2.15.6.72.2,1.46.42,2.21.66.75.24,1.54.53,2.36.87.92.38,1.83.84,2.72,1.37.89.53,1.69,1.19,2.39,1.97.7.78,1.27,1.71,1.7,2.8.43,1.08.65,2.37.65,3.85,0,1.58-.29,3.15-.86,4.71s-1.47,2.94-2.71,4.17-2.81,2.22-4.74,2.98c-1.93.76-4.23,1.14-6.92,1.14-.88,0-1.81-.08-2.78-.23-.97-.15-1.98-.35-3.01-.59-1.03-.24-2.08-.52-3.14-.84-1.06-.32-2.12-.65-3.16-.99l-.72-10.68Z"/>
    </g>
    <rect class="cls-1" x="819.06" y="1084.65" width="168.13" height="4.27"/>
    <rect class="cls-1" x="1408.61" y="1084.65" width="168.13" height="4.27"/>
  </g>
  <g>
    <path class="cls-1" d="m541.63,1126.94l-7.6-2.29c-.72-.22-17.87-5.51-37.14-23.1-17.55-16.02-40.37-45.84-49.45-96.9l11.61,4.02c8.44,47.45,29.29,68.94,45.3,83.72,9.92,9.16,19.26,14.68,25.48,17.75v-223.47l11.58-8.7.22,248.98Z"/>
    <path class="cls-1" d="m609.35,998.62l-12.77-.21,10.43,13.84h111.14c-1.28,15.76-5.46,31.23-12.55,46.41-16.58,36.06-43.87,60.82-81.85,74.31-15.03,5.4-30.55,8.09-46.56,8.09-5.39,0-10.77-.5-16.14-1.49l-1.09-128.39,1.28-151.17c5.53-.71,10.98-1.06,16.37-1.06,43.98,0,80.11,18.39,108.42,55.16.43.56,3.59-20.65-.87-24.93-30.23-28.81-66.29-43.22-108.16-43.22-23.85,0-46.63,5.43-68.34,16.29-21.72,10.86-39.74,25.87-54.08,45.03-20.87,27.54-31.3,58.2-31.3,91.98,0,18.17,3.41,36.48,10.22,54.93,8.66,23.14,22,42.94,40.03,59.4,14.05,12.77,30.16,22.71,48.33,29.81,18.17,7.1,36.62,10.64,55.36,10.64,21.57,0,42.4-4.36,62.49-13.09,20.08-8.73,37.44-20.97,52.06-36.73,26.12-28.24,39.6-63.45,40.45-105.61h-122.85Zm-61.61,138.5c-60.37-16.38-108.96-71.56-108.96-137.11s52.32-118.85,111.12-136.24l-2.15,273.35Z"/>
    <path class="cls-1" d="m572.19,1132.6v-11.73c42.57-4.44,75.52-21.93,97.94-51.98,11.03-14.78,16.69-29.16,19.29-37.37h-73.59l-8.13-11.8h96.54l-1.33,7c-.18.97-4.72,24.09-22.98,48.77-10.72,14.49-23.98,26.53-39.41,35.78-19.19,11.51-43,18.69-68.33,21.33Z"/>
  </g>
</svg>