<?xml version="1.0" encoding="UTF-8"?>
<svg id="Layer_1" data-name="Layer 1" xmlns="http://www.w3.org/2000/svg" viewBox="0 0 1500 1500">
  <defs>
    <style>
      .cls-1 {
        fill: #9f8252;
        stroke-width: 0px;
      }
    </style>
  </defs>
  <path class="cls-1" d="m697.21,766.43l-10.95-3.29c-1.04-.31-25.76-7.95-53.52-33.29-25.29-23.09-58.18-66.06-71.26-139.64l16.74,5.8c12.16,68.37,42.21,99.34,65.28,120.64,14.29,13.2,27.76,21.16,36.71,25.58v-322.04l16.69-12.54.31,358.79Z"/>
  <g>
    <path class="cls-1" d="m794.8,581.51l-18.41-.31,15.03,19.94h160.16c-1.84,22.7-7.87,45-18.08,66.89-23.9,51.96-63.21,87.65-117.95,107.08-21.66,7.78-44.02,11.66-67.1,11.66-7.77,0-15.52-.71-23.27-2.15l-1.57-185.01,1.84-217.84c7.96-1.02,15.83-1.53,23.59-1.53,63.37,0,115.45,26.5,156.23,79.49.62.8,5.17-29.76-1.26-35.92-43.57-41.52-95.53-62.28-155.87-62.28-34.36,0-67.19,7.82-98.49,23.47-31.3,15.65-57.27,37.28-77.93,64.89-30.07,39.69-45.1,83.87-45.1,132.55,0,26.19,4.91,52.57,14.73,79.16,12.47,33.34,31.7,61.88,57.68,85.6,20.25,18.41,43.46,32.73,69.65,42.95,26.18,10.23,52.77,15.34,79.77,15.34,31.09,0,61.1-6.29,90.05-18.87,28.94-12.58,53.95-30.22,75.02-52.93,37.63-40.7,57.07-91.43,58.3-152.18h-177.04Zm-88.79,199.58c-86.99-23.6-157.03-103.13-157.03-197.59s75.4-171.27,160.13-196.33l-3.1,393.92Z"/>
    <g>
      <path class="cls-1" d="m453.77,1042.19c-10.88,5.68-21.61,9.31-34.7,9.31-31.55,0-53-23.5-53-55.21s21.61-55.21,53.63-55.21c13.09,0,22.87,2.37,31.71,7.57l.63,22.87h-9.62l-3.94-23.35,9.78,3.15v8.99c-8.52-7.89-17.19-11.36-27.29-11.36-22.08,0-38.33,17.2-38.33,47.32s14.83,47.17,39.44,47.17c8.99,0,15.62-2.05,24.61-6.47l-7.1,7.42v-9.15c0-11.99-.16-24.29-.47-36.28h15.14c-.32,11.83-.47,23.98-.47,36.28v6.94Zm-31.08-36.91v-6.31h41.01v6.31l-17.35,1.58h-3.15l-20.51-1.58Z"/>
      <path class="cls-1" d="m503.14,949.75v-6.31h44.17v6.31l-20.51,2.37h-3.15l-20.51-2.37Zm23.66,90.71l20.51,2.37v6.31h-44.17v-6.31l20.51-2.37h3.15Zm-8.68-48.11c0-16.25,0-32.65-.47-48.9h15.14c-.47,15.93-.47,32.34-.47,48.9v7.89c0,16.25,0,32.65.47,48.9h-15.14c.47-15.93.47-32.34.47-48.9v-7.89Z"/>
      <path class="cls-1" d="m593.06,949.75v-6.31h22.08v8.68h-1.58l-20.51-2.37Zm23.66,90.71l20.51,2.37v6.31h-44.17v-6.31l20.51-2.37h3.15Zm-8.68-48.11c0-16.25,0-32.65-.47-48.9h15.14c-.47,16.41-.47,31.86-.47,50.48v4.73c0,17.83,0,34.23.47,50.48h-15.14c.47-15.93.47-32.34.47-48.9v-7.89Zm7.1.79h19.72c17.04,0,25.24-9.15,25.24-21.93s-7.1-20.51-23.51-20.51h-21.45v-7.26h21.61c24.14,0,38.33,10.25,38.33,27.76,0,13.41-10.57,25.55-31.23,27.29l.47-1.26c11.36,1.1,18.3,6.31,22.56,20.51l7.73,26.19-4.89-3,16.25,1.89v6.31c-2.84.95-6.63,1.58-11.36,1.58-9.78,0-14.04-2.52-15.93-9.78l-6.47-25.71c-3.15-12.78-8.99-14.99-22.08-14.99h-14.99v-7.1Z"/>
      <path class="cls-1" d="m726.99,949.75v-6.31h44.17v6.31l-20.51,2.37h-3.15l-20.51-2.37Zm23.66,90.71l20.51,2.37v6.31h-44.17v-6.31l20.51-2.37h3.15Zm-8.68-48.11c0-16.25,0-32.65-.47-48.9h15.14c-.47,15.93-.47,32.34-.47,48.9v7.89c0,16.25,0,32.65.47,48.9h-15.14c.47-15.93.47-32.34.47-48.9v-7.89Z"/>
      <path class="cls-1" d="m816.91,949.75v-6.31h22.08v8.68h-1.58l-20.51-2.37Zm23.66,90.71l20.51,2.37v6.31h-44.17v-6.31l20.51-2.37h3.15Zm-8.68-48.11c0-16.25,0-32.65-.47-48.9h15.14c-.47,16.41-.47,31.86-.47,50.48v4.73c0,17.83,0,34.23.47,50.48h-15.14c.47-15.93.47-32.34.47-48.9v-7.89Zm7.1.79h19.72c17.04,0,25.24-9.15,25.24-21.93s-7.1-20.51-23.5-20.51h-21.45v-7.26h21.61c24.13,0,38.33,10.25,38.33,27.76,0,13.41-10.57,25.55-31.24,27.29l.47-1.26c11.36,1.1,18.3,6.31,22.56,20.51l7.73,26.19-4.89-3,16.25,1.89v6.31c-2.84.95-6.63,1.58-11.36,1.58-9.78,0-14.04-2.52-15.93-9.78l-6.47-25.71c-3.15-12.78-8.99-14.99-22.08-14.99h-14.99v-7.1Z"/>
      <path class="cls-1" d="m946.11,1042.82l15.77-2.37h3.15l17.35,2.37v6.31h-36.28v-6.31Zm47.01-100.17h9.46l36.28,106.48h-14.67l-31.71-94.49h3.63l-32.18,94.49h-7.42l36.6-106.48Zm-18.46,64.68h42.59l2.52,7.26h-47.64l2.52-7.26Zm31.08,35.49l19.88-2.37h3.15l19.56,2.37v6.31h-42.59v-6.31Z"/>
      <path class="cls-1" d="m1117.9,943.44c-.47,15.93-.47,32.34-.47,48.9v25.08c0,17.67-.31,25.71-1.89,33.76-3,15.77-16.25,23.51-29.34,23.51-5.84,0-11.99-1.58-13.41-7.57.95-5.68,4.58-7.57,9.46-7.57,3.94,0,7.26,1.26,11.67,4.57l5.21,3.94-1.26,1.73-1.26.16-.31-1.26c5.99-4.58,8.04-10.41,8.04-20.35s-.79-25.87-1.58-104.9h15.14Zm-31.23,0h45.75v6.31l-20.51,2.37h-3.15l-22.08-2.37v-6.31Z"/>
    </g>
    <g>
      <path class="cls-1" d="m530.13,1135.73l4.48-.95c.47-.12.86-.36,1.18-.74.32-.38.48-.82.48-1.34v-39.2c0-.54-.16-1-.48-1.38-.32-.38-.71-.62-1.18-.74l-4.48-.92v-1.66h35.39v11.39h-1.97l-2.5-7.51c-.12-.35-.28-.65-.49-.88-.21-.24-.53-.35-.95-.35h-16.99v19.28h11.14c.47,0,.81-.11,1.02-.32.21-.21.38-.48.49-.81l2.01-5.78h1.73v16.53h-1.73l-2.01-5.71c-.12-.38-.28-.67-.49-.9-.21-.22-.55-.33-1.02-.33h-11.14v21.29h20.02c.42,0,.74-.11.95-.33s.38-.52.49-.9l2.36-8.5h1.97v12.41h-38.28v-1.66Z"/>
      <path class="cls-1" d="m594.42,1135.73l2.61-.81c.54-.19,1.07-.53,1.6-1.02.53-.49.96-.96,1.29-1.41l13.29-18.79-13.01-20.27c-.14-.21-.31-.43-.49-.65-.19-.22-.39-.43-.6-.63-.21-.2-.42-.38-.63-.53-.21-.15-.41-.25-.6-.3l-3.03-.85v-1.66h17.55v1.66l-6.06,1.16,8.81,13.92,2.47,4.05,11.74-17.84-5.75-1.3v-1.66h13.71v1.66l-2.61.78c-.52.17-1.05.51-1.59,1.02-.54.52-.98,1-1.3,1.45l-12.62,18.12,13.36,20.94c.26.4.62.82,1.08,1.25.46.43.86.71,1.22.83l3.03.88v1.66h-17.55v-1.66l6.06-1.16-9.17-14.52-2.43-4.09-12.34,18.47,5.68,1.3v1.66h-13.71v-1.66Z"/>
      <path class="cls-1" d="m663.4,1135.73l4.48-.95c.47-.12.86-.36,1.18-.74.32-.38.48-.82.48-1.34v-39.2c0-.54-.16-1-.48-1.38-.32-.38-.71-.62-1.18-.74l-4.48-.92v-1.66h17.84c2.4,0,4.66.24,6.79.72,2.13.48,3.99,1.24,5.59,2.27,1.6,1.03,2.86,2.36,3.79,3.98.93,1.62,1.39,3.57,1.39,5.85,0,2.42-.41,4.6-1.23,6.54-.82,1.94-1.95,3.58-3.38,4.93-1.43,1.35-3.13,2.39-5.08,3.12-1.95.73-4.07,1.09-6.34,1.09-.54,0-1.1-.06-1.69-.19-.59-.13-1.18-.3-1.78-.53s-1.19-.48-1.78-.78-1.13-.59-1.62-.9v17.77c0,.54.16,1,.49,1.38s.73.61,1.2.71l5.04.95v1.66h-19.21v-1.66Zm12.48-21.96c.38.09.81.18,1.3.25.49.07,1.01.13,1.55.19.54.06,1.09.1,1.66.12s1.1.04,1.62.04c1.41,0,2.63-.21,3.67-.62,1.03-.41,1.92-.95,2.66-1.6s1.34-1.39,1.8-2.2c.46-.81.82-1.63,1.09-2.45.27-.82.45-1.6.55-2.34.09-.74.14-1.36.14-1.85,0-1.57-.18-3.08-.55-4.51s-1-2.7-1.9-3.79c-.9-1.09-2.12-1.97-3.65-2.63-1.53-.66-3.44-.99-5.75-.99h-4.19v22.38Z"/>
      <path class="cls-1" d="m749.06,1138.48c-3.6,0-6.78-.63-9.55-1.89-2.77-1.26-5.11-3.01-7.01-5.25s-3.35-4.92-4.34-8.04c-.99-3.11-1.48-6.53-1.48-10.24s.51-6.83,1.53-9.91c1.02-3.08,2.5-5.76,4.42-8.05,1.93-2.29,4.28-4.09,7.05-5.41,2.77-1.32,5.92-1.97,9.45-1.97,3.81,0,7.11.68,9.92,2.03,2.81,1.35,5.13,3.18,6.98,5.48,1.84,2.3,3.22,4.99,4.12,8.05.9,3.07,1.36,6.33,1.36,9.78,0,2.04-.19,4.09-.56,6.13-.38,2.04-.96,4.01-1.75,5.89s-1.79,3.64-3,5.27c-1.21,1.63-2.65,3.05-4.32,4.25-1.67,1.2-3.57,2.15-5.69,2.84-2.13.69-4.51,1.04-7.14,1.04Zm.67-2.54c2.47,0,4.62-.56,6.47-1.67s3.38-2.65,4.62-4.6c1.23-1.95,2.16-4.25,2.79-6.89.62-2.64.93-5.49.93-8.55,0-3.52-.32-6.76-.97-9.69-.65-2.94-1.63-5.46-2.96-7.58-1.33-2.12-3-3.76-5.02-4.94-2.02-1.17-4.41-1.76-7.16-1.76-2.61,0-4.85.6-6.71,1.8-1.87,1.2-3.4,2.79-4.58,4.78-1.19,1.99-2.06,4.28-2.61,6.87s-.83,5.3-.83,8.12c0,3.45.32,6.65.95,9.59.63,2.94,1.61,5.48,2.93,7.63,1.32,2.15,2.98,3.84,4.99,5.06,2.01,1.22,4.4,1.83,7.17,1.83Z"/>
      <path class="cls-1" d="m799.22,1135.73l4.48-.95c.47-.12.86-.36,1.18-.74s.48-.82.48-1.34v-39.2c0-.54-.16-1-.48-1.38-.32-.38-.71-.62-1.18-.74l-4.48-.92v-1.66h17.84c2.4,0,4.5.17,6.31.49s3.37.78,4.67,1.36c1.3.58,2.38,1.25,3.24,2.01s1.54,1.59,2.04,2.49c.5.89.86,1.83,1.06,2.8.2.98.3,1.95.3,2.91,0,2-.36,3.77-1.07,5.32-.72,1.55-1.62,2.88-2.71,3.98-1.09,1.11-2.29,2-3.58,2.7-1.29.69-2.5,1.18-3.63,1.46l13.36,17.62c.21.28.47.58.78.9.3.32.62.61.95.88.33.27.66.51,1,.71.34.2.66.33.97.41l3.95.88v1.66h-7.44c-1.06,0-1.93-.08-2.63-.25-.69-.16-1.3-.43-1.82-.79-.52-.36-.99-.82-1.43-1.38-.44-.55-.93-1.22-1.5-1.99l-12.48-17.24-5.71-1.09v18.05c0,.54.13.99.41,1.34s.64.6,1.11.74l5.22.95v1.66h-19.21v-1.66Zm12.48-23.26c.26.07.62.13,1.09.18.47.05.97.09,1.52.12s1.06.06,1.57.07c.5.01.92.02,1.25.02,1.83,0,3.42-.3,4.78-.9,1.35-.6,2.47-1.39,3.37-2.38.89-.99,1.56-2.13,2.01-3.42.45-1.29.67-2.64.67-4.05,0-1.88-.26-3.5-.78-4.85-.52-1.35-1.26-2.46-2.24-3.33-.98-.87-2.18-1.51-3.61-1.92s-3.07-.62-4.9-.62h-4.72v21.08Z"/>
      <path class="cls-1" d="m876.49,1135.73l5.18-.95c.47-.09.86-.33,1.18-.72.32-.39.48-.84.48-1.36v-41.24h-11.25c-.47,0-.81.12-1.02.35-.21.23-.38.53-.49.88l-2.54,7.79h-1.87v-11.67h40.78v11.67h-1.87l-2.54-7.79c-.12-.35-.28-.65-.48-.88-.2-.24-.52-.35-.97-.35h-11.42v41.24c0,.54.16,1,.49,1.38s.73.61,1.2.71l5.18.95v1.66h-20.06v-1.66Z"/>
      <path class="cls-1" d="m934.58,1122.86h1.87l2.79,7.01c.12.28.35.61.69.99.34.38.64.65.9.81.85.54,1.76,1.03,2.75,1.48.99.45,1.97.83,2.96,1.15.99.32,1.93.56,2.82.74.89.18,1.68.26,2.36.26,1.48,0,2.83-.21,4.04-.63s2.24-1.04,3.1-1.85c.86-.81,1.52-1.81,1.97-3s.69-2.54.69-4.07c0-2.16-.59-3.93-1.76-5.31s-2.76-2.49-4.76-3.33c-.89-.38-1.77-.69-2.64-.93-.87-.25-1.75-.49-2.63-.72-.88-.24-1.76-.48-2.64-.72-.88-.25-1.76-.55-2.63-.9-2.63-1.06-4.67-2.57-6.12-4.55s-2.17-4.37-2.17-7.19c0-2,.39-3.87,1.16-5.62.78-1.75,1.85-3.28,3.22-4.58,1.38-1.3,3-2.33,4.88-3.07s3.91-1.11,6.1-1.11c1.2,0,2.38.06,3.56.19,1.17.13,2.33.3,3.45.51,1.13.21,2.22.46,3.28.76,1.06.29,2.08.61,3.07.93v11.46h-1.87l-2.43-6.52c-.12-.35-.33-.67-.65-.95s-.61-.52-.86-.71c-.56-.42-1.22-.79-1.97-1.09s-1.52-.56-2.31-.78c-.79-.21-1.56-.37-2.31-.48-.75-.11-1.4-.16-1.94-.16-1.39,0-2.63.19-3.72.58s-2.01.92-2.77,1.6c-.75.68-1.33,1.5-1.75,2.47s-.62,2.01-.62,3.14c0,.99.09,1.95.28,2.89.19.94.53,1.82,1.02,2.64.49.82,1.17,1.58,2.03,2.27.86.69,1.94,1.28,3.26,1.75.85.31,1.69.58,2.52.81.83.24,1.67.47,2.52.71.85.24,1.71.49,2.59.78.88.28,1.8.62,2.77,1.02,1.08.45,2.14.98,3.19,1.6,1.04.62,1.98,1.39,2.8,2.31.82.92,1.49,2.01,1.99,3.28.5,1.27.76,2.77.76,4.51,0,1.86-.33,3.7-1,5.52s-1.73,3.45-3.17,4.88-3.3,2.6-5.55,3.49c-2.26.89-4.96,1.34-8.11,1.34-1.03,0-2.12-.09-3.26-.26-1.14-.18-2.32-.41-3.53-.69-1.21-.28-2.44-.61-3.68-.99-1.25-.38-2.48-.76-3.7-1.16l-.85-12.51Z"/>
    </g>
    <rect class="cls-1" x="306.17" y="1113.75" width="196.97" height="5"/>
    <rect class="cls-1" x="996.85" y="1113.75" width="196.97" height="5"/>
  </g>
  <path class="cls-1" d="m741.26,774.6v-16.91c61.34-6.41,108.83-31.61,141.14-74.9,15.9-21.3,24.05-42.02,27.79-53.86h-106.05l-11.71-17h139.12l-1.91,10.08c-.27,1.4-6.8,34.71-33.12,70.28-15.45,20.88-34.56,38.23-56.8,51.57-27.66,16.59-61.96,26.93-98.47,30.74Z"/>
</svg>