<?xml version="1.0" encoding="UTF-8"?>
<svg id="Layer_1" data-name="Layer 1" xmlns="http://www.w3.org/2000/svg" viewBox="0 0 2000 2000">
  <defs>
    <style>
      .cls-1 {
        fill: #9e8151;
        stroke-width: 0px;
      }
    </style>
  </defs>
  <path class="cls-1" d="m865.42,1473.23l-28.33-8.52c-2.69-.81-66.64-20.56-138.45-86.13-65.42-59.73-150.51-170.9-184.35-361.26l43.3,15c31.45,176.89,109.19,257,168.87,312.1,36.97,34.14,71.81,54.75,94.98,66.17v-833.11l43.17-32.43.81,928.2Z"/>
  <path class="cls-1" d="m1117.87,994.84l-47.62-.79,38.9,51.6h414.34c-4.76,58.74-20.35,116.42-46.77,173.04-61.83,134.42-163.54,226.75-305.14,277.02-56.02,20.12-113.88,30.16-173.58,30.16-20.09,0-40.15-1.85-60.19-5.56l-4.07-478.63,4.77-563.56c20.6-2.64,40.94-3.97,61.03-3.97,163.95,0,298.67,68.55,404.18,205.64,1.6,2.08,13.38-76.99-3.25-92.93-112.71-107.42-247.12-161.13-403.22-161.13-88.9,0-173.83,20.24-254.79,60.72-80.96,40.48-148.17,96.44-201.61,167.88-77.79,102.67-116.68,216.97-116.68,342.9,0,67.74,12.7,136,38.1,204.79,32.27,86.26,82.02,160.08,149.22,221.46,52.39,47.62,112.44,84.67,180.18,111.12,67.73,26.45,136.52,39.68,206.37,39.68,80.43,0,158.08-16.27,232.97-48.81,74.87-32.55,139.56-78.18,194.07-136.92,97.36-105.3,147.64-236.54,150.81-393.7h-457.99Zm-229.69,516.32c-225.05-61.05-406.23-266.79-406.23-511.17s195.06-443.08,414.26-507.91l-8.03,1019.07Z"/>
  <path class="cls-1" d="m979.37,1494.35v-43.74c158.69-16.57,281.54-81.77,365.14-193.78,41.12-55.1,62.21-108.7,71.9-139.32h-274.36l-30.3-43.98h359.9l-4.94,26.08c-.69,3.62-17.6,89.8-85.67,181.81-39.97,54.02-89.41,98.91-146.93,133.4-71.55,42.91-160.29,69.67-254.73,79.53Z"/>
</svg>